<svg width="20" height="20" viewBox="0 0 20 20" fill="none" xmlns="http://www.w3.org/2000/svg">
<g clip-path="url(#clip0_886_135)">
<path d="M13.4921 12.2007C15.3633 12.1676 15.775 9.59351 14.0094 8.98047L11.9706 11.1915C12.2251 11.7905 12.8248 12.2007 13.4921 12.2007Z" fill="#39C3F2"/>
<path d="M19.5302 8.86013C19.2681 7.28762 18.5313 6.0739 17.3874 5.31604C16.8546 5.89436 15.3867 7.48582 14.8326 8.08692C15.724 8.57003 16.2946 9.50555 16.2946 10.5493C16.3009 12.9683 13.3817 14.253 11.6028 12.6195C11.4332 12.9948 11.1953 13.3401 10.8956 13.6398C9.70777 14.9276 6.02842 15.2389 4.45784 15.1931C4.41194 13.6186 4.72453 9.94104 6.0112 8.75537C6.66771 8.0992 7.52418 7.76267 8.38641 7.74617C9.32999 6.87316 10.6385 5.66232 11.5782 4.79264C10.2729 5.13661 8.36097 6.04727 7.77783 5.1875C7.50492 4.54341 8.74562 3.04677 7.7667 1.79076C6.96444 0.783448 5.16896 0.972663 4.15431 1.68831C-0.785916 5.0992 -1.4465 12.5932 2.86626 16.7622C8.14586 22.0824 17.3556 19.6721 19.379 12.4625C19.4888 12.0088 19.8033 10.5213 19.5302 8.86013V8.86013Z" fill="#39C3F2"/>
<path d="M10.8955 8.75517C11.2163 9.07597 11.4661 9.44857 11.6372 9.85416C12.2907 9.14646 15.7408 5.40326 16.3137 4.78247L19.3769 1.46018C19.7116 1.09718 19.7204 0.559962 19.3973 0.236482C19.0734 -0.0869977 18.5354 -0.0777883 18.1724 0.257971L13.6924 4.40412C12.7197 5.30407 10.7849 7.0953 9.79227 8.01382C10.1936 8.18189 10.5693 8.42901 10.8955 8.75517V8.75517Z" fill="#39C3F2"/>
<path d="M9.46698 9.12934C8.59297 8.70402 7.53381 8.862 6.82503 9.56832C6.09296 10.2156 5.67731 12.6789 5.6351 14.0149C6.97499 13.9714 9.43236 13.5581 10.0813 12.825C10.5165 12.3898 10.7559 11.8116 10.7559 11.1968C10.7558 10.5813 10.5161 10.003 10.0813 9.5687V9.56832C9.89713 9.38375 9.68915 9.23755 9.46698 9.12934V9.12934Z" fill="#39C3F2"/>
</g>
<defs>
<clipPath id="clip0_886_135">
<rect width="19.6411" height="19.6411" fill="white"/>
</clipPath>
</defs>
</svg>
